Coordinates
version=1
nRows=24
nColumns=24
inDegrees=yes

Units are S.I. units (second, meters, Newtons, ...)
Angles are in degrees.

endheader
time	pelvis_tilt	pelvis_list	pelvis_rotation	pelvis_tx	pelvis_ty	pelvis_tz	hip_flexion_r	hip_adduction_r	hip_rotation_r	knee_angle_r	ankle_angle_r	subtalar_angle_r	mtp_angle_r	hip_flexion_l	hip_adduction_l	hip_rotation_l	knee_angle_l	ankle_angle_l	subtalar_angle_l	mtp_angle_l	lumbar_extension	lumbar_bending	lumbar_rotation
      4.51500000	    -19.14138725	     11.24882204	     -6.74929272	     -0.73145971	     -0.04396848	     -0.23994620	     18.47284417	     -8.77531992	      3.41223515	    -58.33899691	    -38.48126244	    -11.08106256	     18.24965297	     42.71612806	     13.63858686	      1.83075723	    -28.66755383	     20.79893638	     14.70480863	    -75.48096887	     15.92511929	     -8.49370980	      8.05180755
      4.52000000	    -19.10731981	     11.37486896	     -6.79571217	     -0.72373438	     -0.04238428	     -0.23984990	     19.69238656	     -8.61932072	      3.80051208	    -59.76840384	    -36.44646985	    -12.85416242	     15.55864605	     41.75942885	     13.78699442	      1.77055087	    -28.03158763	     21.25220530	     15.02308917	    -75.66122519	     15.95069622	     -8.54755790	      7.94202234
      4.52500000	    -19.09040523	     11.40023632	     -6.83618194	     -0.71609285	     -0.04076533	     -0.23963642	     20.88256276	     -8.31013414	      4.19801539	    -61.02396958	    -34.64951944	    -14.63874394	     13.08712464	     40.84067611	     13.82763346	      1.64356836	    -27.46689290	     21.69219710	     15.41048662	    -75.69993416	     15.98000570	     -8.51394813	      7.82163062
      4.53000000	    -18.99832226	     11.49825956	     -6.88512384	     -0.70836494	     -0.03898072	     -0.23951624	     21.98887054	     -8.10420769	      4.60541472	    -62.19743315	    -32.63585441	    -16.05518263	      9.95326532	     39.74291269	     14.02269985	      1.79656723	    -26.68942259	     21.94290154	     15.39378144	    -75.68761975	     15.95105517	     -8.54915738	      7.73352319
      4.53500000	    -18.96788931	     11.53410734	     -6.91476630	     -0.70067538	     -0.03720109	     -0.23933519	     23.11889826	     -7.80286497	      5.01031187	    -63.21323773	    -30.83181451	    -17.40911183	      7.08989064	     38.67809859	     14.16628579	      2.06236548	    -25.87696158	     22.14298447	     15.34396465	    -75.58564533	     15.98160144	     -8.52679477	      7.61084940
      4.54000000	    -18.86893245	     11.58134074	     -6.91677229	     -0.69298406	     -0.03535745	     -0.23926214	     24.14321692	     -7.56925132	      5.34117065	    -64.11764013	    -28.89937280	    -18.51769033	      4.20342589	     37.52561658	     14.38291804	      2.38006078	    -25.02217027	     22.20240437	     15.05641431	    -75.41445764	     15.93091937	     -8.52780062	      7.47740557
      4.54500000	    -18.78680585	     11.54791554	     -6.92627608	     -0.68530863	     -0.03342997	     -0.23916304	     25.13257850	     -7.22997159	      5.69442814	    -64.84080248	    -27.20083106	    -19.51612144	      1.81263419	     36.31725245	     14.54163755	      2.95877953	    -24.07089906	     22.21388921	     14.63185327	    -75.20385150	     15.88982520	     -8.44477959	      7.34269668
      4.55000000	    -18.78989361	     11.55141940	     -7.01926039	     -0.67771283	     -0.03160261	     -0.23891626	     26.21510476	     -6.87272612	      6.18812017	    -65.37310125	    -26.07198890	    -20.72768132	      1.45747861	     35.22285810	     14.63702727	      3.29871739	    -23.10711198	     22.19454723	     14.23512833	    -75.15494948	     15.95983429	     -8.36599517	      7.31234595
      4.55500000	    -18.64917160	     11.43559263	     -6.97875659	     -0.67003319	     -0.02958236	     -0.23866603	     27.07355686	     -6.49826102	      6.31129770	    -65.94630369	    -23.70772302	    -21.09567774	     -3.12120113	     33.88463454	     14.73021486	      3.99724520	    -22.07298858	     22.04596267	     13.81312460	    -74.47428769	     15.83559262	     -8.25682241	      7.10110687
      4.56000000	    -18.62214084	     11.31051140	     -6.94361142	     -0.66242705	     -0.02764737	     -0.23858375	     27.98868133	     -6.11771553	      6.58892804	    -66.19366955	    -22.42165131	    -21.80526849	     -3.20572588	     32.64964097	     14.80730769	      4.81065443	    -20.98403000	     21.86464249	     13.14643249	    -74.45478771	     15.83472031	     -8.09788948	      6.91116695
      4.56500000	    -18.46131302	     11.03640287	     -6.86385532	     -0.65479468	     -0.02551115	     -0.23847162	     28.66303818	     -5.65067530	      6.66796634	    -66.31267174	    -20.66399560	    -22.12456120	     -4.63389458	     31.23290133	     14.76414861	      5.70917042	    -19.90074300	     21.62746269	     12.58681604	    -73.85754167	     15.65179986	     -7.83413026	      6.60537763
      4.57000000	    -18.47727902	     10.82166226	     -6.83061055	     -0.64727685	     -0.02360741	     -0.23832478	     29.54594941	     -5.20229253	      6.87264675	    -66.30088357	    -19.21723549	    -22.43413645	     -4.44549975	     30.00892442	     14.70211034	      6.60167659	    -18.75832720	     21.34285995	     11.86883939	    -73.83810910	     15.67169206	     -7.59318597	      6.42084877
      4.57500000	    -18.40765529	     10.47091788	     -6.72115150	     -0.63977386	     -0.02156503	     -0.23822077	     30.22877793	     -4.69395376	      6.91335972	    -66.09827532	    -17.72150819	    -22.57864733	     -4.10128602	     28.68174231	     14.52862676	      7.55451396	    -17.65385140	     21.07127372	     11.28326247	    -73.74263757	     15.56148548	     -7.25947263	      6.08498154
      4.58000000	    -18.36974425	     10.08517473	     -6.60306672	     -0.63233066	     -0.01956858	     -0.23811323	     30.90850938	     -4.16803149	      6.92009290	    -65.75955985	    -16.23951211	    -22.59627675	     -3.54837494	     27.39550274	     14.28967031	      8.51453887	    -16.55585942	     20.75373709	     10.71025260	    -73.60103837	     15.47485300	     -6.89297934	      5.74459907
      4.58500000	    -18.34844413	      9.65126682	     -6.45252474	     -0.62494664	     -0.01760233	     -0.23803133	     31.55688034	     -3.62895223	      6.86556955	    -65.27573174	    -14.79873692	    -22.50149976	     -2.76309905	     26.14860027	     13.98280539	      9.44763499	    -15.49710752	     20.42166328	     10.21203062	    -73.42878559	     15.38960616	     -6.49012098	      5.36231496
      4.59000000	    -18.33805317	      9.19517937	     -6.27776841	     -0.61761777	     -0.01568146	     -0.23797661	     32.17647734	     -3.09480197	      6.78828366	    -64.65679010	    -13.44507822	    -22.32435881	     -1.70790703	     24.93340906	     13.63485500	     10.39014553	    -14.46373958	     20.05631412	      9.74647914	    -73.21734598	     15.30580077	     -6.07303188	      4.96305703
      4.59500000	    -18.44614143	      8.73191903	     -6.11512111	     -0.61039631	     -0.01389090	     -0.23804707	     32.87685440	     -2.55984934	      6.78181632	    -63.75134305	    -13.09377222	    -22.79609478	      2.25713071	     23.84346942	     13.25562111	     11.52223707	    -13.40335094	     19.40158149	      9.04290763	    -71.97091115	     15.34039201	     -5.61400708	      4.58989740
      4.60000000	    -18.44774315	      8.26607132	     -5.94118112	     -0.60322039	     -0.01211092	     -0.23783342	     33.46267961	     -2.03276505	      6.68373212	    -62.92961192	    -11.72888416	    -22.32707862	      2.94044207	     22.80032323	     12.80925486	     11.90044967	    -12.59881737	     19.22736761	      9.16447475	    -71.98263519	     15.25536011	     -5.21734833	      4.20534393
      4.60500000	    -18.43623834	      7.84268096	     -5.77646780	     -0.59601427	     -0.01035853	     -0.23780926	     34.00377145	     -1.57128137	      6.64720822	    -61.95786598	    -10.75177399	    -22.06844016	      4.35644682	     21.63674160	     12.43476471	     12.85215689	    -11.58408538	     18.74288717	      8.54625567	    -71.91100766	     15.16888996	     -4.83004309	      3.80318591
      4.61000000	    -18.47773653	      7.40134753	     -5.53421646	     -0.58890565	     -0.00872236	     -0.23782839	     34.55555922	     -1.15357730	      6.52546199	    -60.84051727	     -9.99805480	    -21.88385280	      6.30002293	     20.65418797	     12.03254312	     13.49294346	    -10.77852700	     18.33362390	      8.37262357	    -71.64027803	     15.11818176	     -4.45615533	      3.42392976
      4.61500000	    -18.61802955	      6.95669110	     -5.20619921	     -0.58189727	     -0.00733643	     -0.23778551	     35.20778225	     -0.75744557	      6.29444223	    -59.72372372	     -9.09577536	    -21.56489275	      6.83368058	     19.92108211	     11.61569144	     13.72026358	    -10.21727738	     18.19937940	      8.73081600	    -71.60457727	     15.16296443	     -4.11255711	      2.90510123
      4.62000000	    -18.66346458	      6.56802054	     -4.89672327	     -0.57488349	     -0.00591291	     -0.23776431	     35.72954790	     -0.43305694	      6.14409432	    -58.50921581	     -8.26594645	    -21.17807759	      7.53217014	     19.07523216	     11.26592717	     14.05554072	     -9.60448741	     17.91629234	      8.84950901	    -71.56330185	     15.11047946	     -3.83095866	      2.41408841
      4.62500000	    -18.66645945	      6.24213984	     -4.67355118	     -0.56781204	     -0.00454552	     -0.23778526	     36.18802029	     -0.15424432	      6.09948955	    -57.16405310	     -7.79690085	    -21.05679501	      9.06086971	     18.09452383	     10.97067519	     14.78235726	     -8.80427312	     17.37661547	      8.32951657	    -71.31307799	     15.03338590	     -3.57205414	      2.05778301
      4.63000000	    -18.72591530	      5.91703844	     -4.36311879	     -0.56084509	     -0.00335031	     -0.23778358	     36.67929072	      0.08562791	      6.00089905	    -55.76228955	     -7.32925127	    -20.88831248	     10.29229463	     17.32808043	     10.68553218	     15.06047717	     -8.26914137	     17.03218993	      8.38516642	    -70.96740969	     14.99972180	     -3.35371240	      1.60478128
